<mxfile host="app.diagrams.net" modified="2023-04-04T20:46:41.001Z" agent="Mozilla/5.0 (Windows NT 10.0; Win64; x64; rv:109.0) Gecko/20100101 Firefox/111.0" etag="IuqdYGlLV151kWgY_L9E" version="21.1.4" type="device">
  <diagram name="Page-1" id="bTuVmGtFbyZAvQbGB9Ok">
    <mxGraphModel dx="1591" dy="631" grid="1" gridSize="10" guides="1" tooltips="1" connect="1" arrows="1" fold="1" page="1" pageScale="1" pageWidth="850" pageHeight="1100" math="0" shadow="0">
      <root>
        <mxCell id="0" />
        <mxCell id="1" parent="0" />
        <mxCell id="XNjm_RMN_ur9uYepYAQd-6" style="edgeStyle=orthogonalEdgeStyle;rounded=0;orthogonalLoop=1;jettySize=auto;html=1;entryX=0.5;entryY=0;entryDx=0;entryDy=0;" edge="1" parent="1" source="XNjm_RMN_ur9uYepYAQd-1" target="XNjm_RMN_ur9uYepYAQd-2">
          <mxGeometry relative="1" as="geometry" />
        </mxCell>
        <mxCell id="XNjm_RMN_ur9uYepYAQd-7" style="edgeStyle=orthogonalEdgeStyle;rounded=0;orthogonalLoop=1;jettySize=auto;html=1;entryX=0.5;entryY=0;entryDx=0;entryDy=0;" edge="1" parent="1" source="XNjm_RMN_ur9uYepYAQd-1" target="XNjm_RMN_ur9uYepYAQd-3">
          <mxGeometry relative="1" as="geometry" />
        </mxCell>
        <mxCell id="XNjm_RMN_ur9uYepYAQd-1" value="App" style="rounded=0;whiteSpace=wrap;html=1;fillColor=#f8cecc;strokeColor=#b85450;" vertex="1" parent="1">
          <mxGeometry x="270" y="80" width="120" height="60" as="geometry" />
        </mxCell>
        <mxCell id="XNjm_RMN_ur9uYepYAQd-9" style="edgeStyle=orthogonalEdgeStyle;rounded=0;orthogonalLoop=1;jettySize=auto;html=1;entryX=0.559;entryY=-0.003;entryDx=0;entryDy=0;entryPerimeter=0;" edge="1" parent="1" source="XNjm_RMN_ur9uYepYAQd-2" target="XNjm_RMN_ur9uYepYAQd-5">
          <mxGeometry relative="1" as="geometry">
            <Array as="points">
              <mxPoint x="145" y="270" />
              <mxPoint x="255" y="270" />
            </Array>
          </mxGeometry>
        </mxCell>
        <mxCell id="XNjm_RMN_ur9uYepYAQd-28" style="edgeStyle=orthogonalEdgeStyle;rounded=0;orthogonalLoop=1;jettySize=auto;html=1;" edge="1" parent="1" source="XNjm_RMN_ur9uYepYAQd-2" target="XNjm_RMN_ur9uYepYAQd-23">
          <mxGeometry relative="1" as="geometry">
            <Array as="points">
              <mxPoint x="145" y="270" />
              <mxPoint x="55" y="270" />
            </Array>
          </mxGeometry>
        </mxCell>
        <mxCell id="XNjm_RMN_ur9uYepYAQd-2" value="Header" style="rounded=0;whiteSpace=wrap;html=1;fillColor=#dae8fc;strokeColor=#6c8ebf;" vertex="1" parent="1">
          <mxGeometry x="85" y="190" width="120" height="60" as="geometry" />
        </mxCell>
        <mxCell id="XNjm_RMN_ur9uYepYAQd-12" style="edgeStyle=orthogonalEdgeStyle;rounded=0;orthogonalLoop=1;jettySize=auto;html=1;" edge="1" parent="1" source="XNjm_RMN_ur9uYepYAQd-3" target="XNjm_RMN_ur9uYepYAQd-10">
          <mxGeometry relative="1" as="geometry" />
        </mxCell>
        <mxCell id="XNjm_RMN_ur9uYepYAQd-13" style="edgeStyle=orthogonalEdgeStyle;rounded=0;orthogonalLoop=1;jettySize=auto;html=1;" edge="1" parent="1" source="XNjm_RMN_ur9uYepYAQd-3" target="XNjm_RMN_ur9uYepYAQd-11">
          <mxGeometry relative="1" as="geometry" />
        </mxCell>
        <mxCell id="XNjm_RMN_ur9uYepYAQd-3" value="Meals" style="rounded=0;whiteSpace=wrap;html=1;fillColor=#dae8fc;strokeColor=#6c8ebf;" vertex="1" parent="1">
          <mxGeometry x="470" y="190" width="120" height="60" as="geometry" />
        </mxCell>
        <mxCell id="XNjm_RMN_ur9uYepYAQd-26" style="edgeStyle=orthogonalEdgeStyle;rounded=0;orthogonalLoop=1;jettySize=auto;html=1;" edge="1" parent="1" source="XNjm_RMN_ur9uYepYAQd-5" target="XNjm_RMN_ur9uYepYAQd-25">
          <mxGeometry relative="1" as="geometry" />
        </mxCell>
        <mxCell id="XNjm_RMN_ur9uYepYAQd-5" value="HeaderCart" style="rounded=0;whiteSpace=wrap;html=1;fillColor=#dae8fc;strokeColor=#6c8ebf;" vertex="1" parent="1">
          <mxGeometry x="205" y="310" width="90" height="50" as="geometry" />
        </mxCell>
        <mxCell id="XNjm_RMN_ur9uYepYAQd-10" value="MealsSummary" style="rounded=0;whiteSpace=wrap;html=1;fillColor=#dae8fc;strokeColor=#6c8ebf;" vertex="1" parent="1">
          <mxGeometry x="400" y="310" width="90" height="50" as="geometry" />
        </mxCell>
        <mxCell id="XNjm_RMN_ur9uYepYAQd-27" style="edgeStyle=orthogonalEdgeStyle;rounded=0;orthogonalLoop=1;jettySize=auto;html=1;entryX=0.5;entryY=0;entryDx=0;entryDy=0;" edge="1" parent="1" source="XNjm_RMN_ur9uYepYAQd-11" target="XNjm_RMN_ur9uYepYAQd-15">
          <mxGeometry relative="1" as="geometry" />
        </mxCell>
        <mxCell id="XNjm_RMN_ur9uYepYAQd-11" value="AvailableMeals" style="rounded=0;whiteSpace=wrap;html=1;fillColor=#dae8fc;strokeColor=#6c8ebf;" vertex="1" parent="1">
          <mxGeometry x="560" y="310" width="90" height="50" as="geometry" />
        </mxCell>
        <mxCell id="XNjm_RMN_ur9uYepYAQd-15" value="Card" style="rounded=0;whiteSpace=wrap;html=1;fillColor=#d5e8d4;strokeColor=#82b366;verticalAlign=top;align=left;" vertex="1" parent="1">
          <mxGeometry x="540" y="380" width="130" height="80" as="geometry" />
        </mxCell>
        <mxCell id="XNjm_RMN_ur9uYepYAQd-20" style="edgeStyle=orthogonalEdgeStyle;rounded=0;orthogonalLoop=1;jettySize=auto;html=1;" edge="1" parent="1" source="XNjm_RMN_ur9uYepYAQd-17" target="XNjm_RMN_ur9uYepYAQd-19">
          <mxGeometry relative="1" as="geometry" />
        </mxCell>
        <mxCell id="XNjm_RMN_ur9uYepYAQd-17" value="MealItem" style="rounded=0;whiteSpace=wrap;html=1;fillColor=#dae8fc;strokeColor=#6c8ebf;" vertex="1" parent="1">
          <mxGeometry x="560" y="400" width="90" height="50" as="geometry" />
        </mxCell>
        <mxCell id="XNjm_RMN_ur9uYepYAQd-22" style="edgeStyle=orthogonalEdgeStyle;rounded=0;orthogonalLoop=1;jettySize=auto;html=1;" edge="1" parent="1" source="XNjm_RMN_ur9uYepYAQd-19" target="XNjm_RMN_ur9uYepYAQd-21">
          <mxGeometry relative="1" as="geometry" />
        </mxCell>
        <mxCell id="XNjm_RMN_ur9uYepYAQd-19" value="MealItemForm" style="rounded=0;whiteSpace=wrap;html=1;fillColor=#dae8fc;strokeColor=#6c8ebf;" vertex="1" parent="1">
          <mxGeometry x="560" y="490" width="90" height="50" as="geometry" />
        </mxCell>
        <mxCell id="XNjm_RMN_ur9uYepYAQd-21" value="Input" style="rounded=0;whiteSpace=wrap;html=1;fillColor=#d5e8d4;strokeColor=#82b366;" vertex="1" parent="1">
          <mxGeometry x="560" y="560" width="90" height="50" as="geometry" />
        </mxCell>
        <mxCell id="XNjm_RMN_ur9uYepYAQd-34" style="edgeStyle=orthogonalEdgeStyle;rounded=0;orthogonalLoop=1;jettySize=auto;html=1;entryX=0.5;entryY=0;entryDx=0;entryDy=0;" edge="1" parent="1" source="XNjm_RMN_ur9uYepYAQd-23" target="XNjm_RMN_ur9uYepYAQd-32">
          <mxGeometry relative="1" as="geometry">
            <Array as="points">
              <mxPoint x="55" y="410" />
              <mxPoint x="105" y="410" />
            </Array>
          </mxGeometry>
        </mxCell>
        <mxCell id="XNjm_RMN_ur9uYepYAQd-23" value="Modal" style="rounded=0;whiteSpace=wrap;html=1;fillColor=#d5e8d4;strokeColor=#82b366;verticalAlign=top;align=left;" vertex="1" parent="1">
          <mxGeometry x="-10" y="310" width="130" height="90" as="geometry" />
        </mxCell>
        <mxCell id="XNjm_RMN_ur9uYepYAQd-25" value="CartIcon" style="rounded=0;whiteSpace=wrap;html=1;fillColor=#dae8fc;strokeColor=#6c8ebf;" vertex="1" parent="1">
          <mxGeometry x="205" y="390" width="90" height="50" as="geometry" />
        </mxCell>
        <mxCell id="XNjm_RMN_ur9uYepYAQd-33" style="edgeStyle=orthogonalEdgeStyle;rounded=0;orthogonalLoop=1;jettySize=auto;html=1;" edge="1" parent="1" source="XNjm_RMN_ur9uYepYAQd-4" target="XNjm_RMN_ur9uYepYAQd-31">
          <mxGeometry relative="1" as="geometry" />
        </mxCell>
        <mxCell id="XNjm_RMN_ur9uYepYAQd-4" value="Cart" style="rounded=0;whiteSpace=wrap;html=1;fillColor=#dae8fc;strokeColor=#6c8ebf;" vertex="1" parent="1">
          <mxGeometry x="10" y="340" width="90" height="50" as="geometry" />
        </mxCell>
        <mxCell id="XNjm_RMN_ur9uYepYAQd-29" value="CartItem" style="rounded=0;whiteSpace=wrap;html=1;fillColor=#dae8fc;strokeColor=#6c8ebf;" vertex="1" parent="1">
          <mxGeometry x="-50" y="510" width="90" height="50" as="geometry" />
        </mxCell>
        <mxCell id="XNjm_RMN_ur9uYepYAQd-35" style="edgeStyle=orthogonalEdgeStyle;rounded=0;orthogonalLoop=1;jettySize=auto;html=1;entryX=0.5;entryY=0;entryDx=0;entryDy=0;" edge="1" parent="1" source="XNjm_RMN_ur9uYepYAQd-31" target="XNjm_RMN_ur9uYepYAQd-29">
          <mxGeometry relative="1" as="geometry" />
        </mxCell>
        <mxCell id="XNjm_RMN_ur9uYepYAQd-31" value="CartList" style="rounded=0;whiteSpace=wrap;html=1;fillColor=#dae8fc;strokeColor=#6c8ebf;" vertex="1" parent="1">
          <mxGeometry x="-50" y="430" width="90" height="50" as="geometry" />
        </mxCell>
        <mxCell id="XNjm_RMN_ur9uYepYAQd-32" value="CartActions" style="rounded=0;whiteSpace=wrap;html=1;fillColor=#dae8fc;strokeColor=#6c8ebf;" vertex="1" parent="1">
          <mxGeometry x="60" y="430" width="90" height="50" as="geometry" />
        </mxCell>
      </root>
    </mxGraphModel>
  </diagram>
</mxfile>
